<?xml version="1.0" encoding="UTF-8"?>
<svg xmlns="http://www.w3.org/2000/svg" xmlns:xlink="http://www.w3.org/1999/xlink" width="64px" height="64px" viewBox="0 0 64 64" version="1.1">
<defs>
<filter id="alpha" filterUnits="objectBoundingBox" x="0%" y="0%" width="100%" height="100%">
  <feColorMatrix type="matrix" in="SourceGraphic" values="0 0 0 0 1 0 0 0 0 1 0 0 0 0 1 0 0 0 1 0"/>
</filter>
<mask id="mask0">
  <g filter="url(#alpha)">
<rect x="0" y="0" width="64" height="64" style="fill:rgb(0%,0%,0%);fill-opacity:0.501961;stroke:none;"/>
  </g>
</mask>
<clipPath id="clip1">
  <rect x="0" y="0" width="64" height="64"/>
</clipPath>
<g id="surface5" clip-path="url(#clip1)">
<path style=" stroke:none;fill-rule:evenodd;fill:rgb(0%,0%,0%);fill-opacity:1;" d="M 58.25 29.480469 C 58.25 29.546875 58.246094 29.609375 58.242188 29.675781 C 58.238281 29.738281 58.234375 29.804688 58.222656 29.867188 C 58.214844 29.933594 58.203125 29.996094 58.191406 30.058594 C 58.175781 30.125 58.164062 30.1875 58.144531 30.25 L 50.949219 42.394531 L 48.289062 37.832031 L 44.035156 45.738281 L 41.59375 42.5 L 32.84375 54.75 L 22.753906 41.761719 L 17.820312 47.34375 L 6.199219 31.042969 L 6.121094 30.921875 L 6.03125 30.757812 L 6.03125 30.636719 C 5.988281 30.542969 5.953125 30.449219 5.921875 30.355469 C 5.890625 30.261719 5.863281 30.164062 5.84375 30.066406 C 5.824219 29.96875 5.804688 29.867188 5.792969 29.765625 C 5.78125 29.667969 5.773438 29.566406 5.773438 29.46875 C 5.773438 28.398438 5.773438 26.796875 7.296875 26.796875 L 37.046875 26.796875 L 37.046875 36.566406 L 40.75 34.421875 L 50.011719 29.003906 L 50.597656 28.671875 L 50.921875 28.085938 L 51.65625 26.800781 L 56.75 26.800781 C 58.25 26.808594 58.25 28.414062 58.25 29.480469 Z M 46.488281 9.285156 L 55.742188 14.582031 L 48.742188 26.878906 L 39.476562 32.296875 L 39.476562 21.582031 Z M 46.488281 9.285156 "/>
</g>
</defs>
<g id="surface1">
<use xlink:href="#surface5" mask="url(#mask0)"/>
</g>
</svg>
